<svg width="171" height="50" viewBox="0 0 171 50" fill="none" xmlns="http://www.w3.org/2000/svg">
<rect width="50" height="50" rx="15" fill="white"/>
<path d="M14.8466 23.3293H27.586C31.6806 23.3293 35 26.6486 35 30.7432C35 34.8378 31.6806 38.1572 27.586 38.1572H20.3033C17.2896 38.1572 14.8466 35.7141 14.8466 32.7005V23.3293Z" fill="url(#paint0_linear)"/>
<path fill-rule="evenodd" clip-rule="evenodd" d="M21.353 11.8428C17.7596 11.8428 14.8466 14.7558 14.8466 18.3492V25.7906H14.8466V33.1449C14.8466 26.1938 20.5523 25.7931 24.3121 25.7906H24.8934C28.745 25.7906 31.8673 22.6683 31.8673 18.8167C31.8673 14.9651 28.745 11.8428 24.8934 11.8428H21.353Z" fill="url(#paint1_linear)"/>
<path d="M76.373 25.016C77.009 25.268 77.525 25.652 77.921 26.168C78.329 26.684 78.533 27.35 78.533 28.166C78.533 29.594 78.125 30.59 77.309 31.154C76.493 31.718 75.521 32 74.393 32H69.911C69.599 32 69.335 31.898 69.119 31.694C68.915 31.478 68.813 31.214 68.813 30.902V20.498C68.813 20.186 68.915 19.928 69.119 19.724C69.335 19.508 69.599 19.4 69.911 19.4H74.447C76.727 19.4 77.867 20.468 77.867 22.604C77.867 23.144 77.735 23.624 77.471 24.044C77.219 24.452 76.853 24.776 76.373 25.016ZM75.527 23C75.527 22.508 75.401 22.142 75.149 21.902C74.909 21.65 74.567 21.524 74.123 21.524H71.153V24.332H74.177C74.537 24.332 74.849 24.212 75.113 23.972C75.389 23.732 75.527 23.408 75.527 23ZM74.393 29.93C74.957 29.93 75.395 29.78 75.707 29.48C76.031 29.18 76.193 28.742 76.193 28.166C76.193 27.458 76.007 26.996 75.635 26.78C75.263 26.564 74.807 26.456 74.267 26.456H71.153V29.93H74.393ZM87.952 22.19C88.264 22.19 88.522 22.292 88.726 22.496C88.93 22.7 89.032 22.964 89.032 23.288V30.902C89.032 31.214 88.93 31.478 88.726 31.694C88.522 31.898 88.264 32 87.952 32C87.64 32 87.382 31.898 87.178 31.694C86.986 31.49 86.884 31.232 86.872 30.92C86.572 31.268 86.164 31.568 85.648 31.82C85.144 32.06 84.61 32.18 84.046 32.18C83.218 32.18 82.468 31.97 81.796 31.55C81.124 31.118 80.59 30.524 80.194 29.768C79.81 29.012 79.618 28.154 79.618 27.194C79.618 26.234 79.81 25.376 80.194 24.62C80.578 23.852 81.1 23.258 81.76 22.838C82.432 22.406 83.17 22.19 83.974 22.19C84.55 22.19 85.09 22.298 85.594 22.514C86.098 22.718 86.524 22.982 86.872 23.306V23.288C86.872 22.976 86.974 22.718 87.178 22.514C87.382 22.298 87.64 22.19 87.952 22.19ZM84.316 30.2C85.096 30.2 85.732 29.918 86.224 29.354C86.716 28.778 86.962 28.058 86.962 27.194C86.962 26.33 86.716 25.61 86.224 25.034C85.732 24.458 85.096 24.17 84.316 24.17C83.548 24.17 82.918 24.458 82.426 25.034C81.934 25.61 81.688 26.33 81.688 27.194C81.688 28.058 81.928 28.778 82.408 29.354C82.9 29.918 83.536 30.2 84.316 30.2ZM95.2968 22.19C96.3168 22.19 97.1388 22.352 97.7628 22.676C98.3868 22.988 98.6988 23.408 98.6988 23.936C98.6988 24.2 98.6208 24.434 98.4648 24.638C98.3088 24.83 98.1048 24.926 97.8528 24.926C97.6608 24.926 97.5048 24.902 97.3848 24.854C97.2648 24.794 97.1448 24.722 97.0248 24.638C96.9168 24.542 96.8088 24.464 96.7008 24.404C96.5808 24.344 96.4008 24.29 96.1608 24.242C95.9328 24.194 95.7468 24.17 95.6028 24.17C94.7028 24.17 93.9948 24.452 93.4788 25.016C92.9748 25.568 92.7228 26.294 92.7228 27.194C92.7228 28.058 92.9808 28.778 93.4968 29.354C94.0128 29.918 94.6728 30.2 95.4768 30.2C96.0648 30.2 96.5028 30.128 96.7908 29.984C96.8628 29.948 96.9588 29.888 97.0788 29.804C97.2108 29.708 97.3308 29.636 97.4388 29.588C97.5468 29.54 97.6788 29.516 97.8348 29.516C98.1348 29.516 98.3688 29.612 98.5368 29.804C98.7168 29.996 98.8068 30.242 98.8068 30.542C98.8068 30.83 98.6388 31.1 98.3028 31.352C97.9668 31.604 97.5228 31.808 96.9708 31.964C96.4188 32.108 95.8308 32.18 95.2068 32.18C94.2828 32.18 93.4668 31.964 92.7588 31.532C92.0628 31.1 91.5228 30.506 91.1388 29.75C90.7548 28.982 90.5628 28.13 90.5628 27.194C90.5628 26.222 90.7608 25.358 91.1568 24.602C91.5648 23.846 92.1288 23.258 92.8488 22.838C93.5688 22.406 94.3848 22.19 95.2968 22.19ZM108.106 30.11C108.334 30.35 108.448 30.62 108.448 30.92C108.448 31.22 108.328 31.472 108.088 31.676C107.86 31.88 107.614 31.982 107.35 31.982C107.038 31.982 106.774 31.862 106.558 31.622L103.318 28.202L102.436 29.012V30.902C102.436 31.214 102.334 31.478 102.13 31.694C101.926 31.898 101.668 32 101.356 32C101.044 32 100.786 31.898 100.582 31.694C100.378 31.478 100.276 31.214 100.276 30.902V19.778C100.276 19.466 100.378 19.208 100.582 19.004C100.786 18.788 101.044 18.68 101.356 18.68C101.668 18.68 101.926 18.788 102.13 19.004C102.334 19.208 102.436 19.466 102.436 19.778V26.438L106.288 22.712C106.516 22.484 106.78 22.37 107.08 22.37C107.344 22.37 107.578 22.484 107.782 22.712C107.998 22.928 108.106 23.15 108.106 23.378C108.106 23.666 107.962 23.936 107.674 24.188L104.956 26.69L108.106 30.11ZM115.061 22.19C115.889 22.19 116.639 22.406 117.311 22.838C117.983 23.258 118.511 23.846 118.895 24.602C119.291 25.358 119.489 26.216 119.489 27.176C119.489 28.136 119.297 29 118.913 29.768C118.529 30.524 118.001 31.118 117.329 31.55C116.669 31.97 115.937 32.18 115.133 32.18C114.557 32.18 114.011 32.066 113.495 31.838C112.991 31.598 112.571 31.31 112.235 30.974V34.502C112.235 34.814 112.133 35.072 111.929 35.276C111.725 35.492 111.467 35.6 111.155 35.6C110.843 35.6 110.585 35.498 110.381 35.294C110.177 35.09 110.075 34.826 110.075 34.502V23.468C110.075 23.156 110.177 22.898 110.381 22.694C110.585 22.478 110.843 22.37 111.155 22.37C111.467 22.37 111.725 22.478 111.929 22.694C112.133 22.898 112.235 23.156 112.235 23.468V23.54C112.523 23.18 112.925 22.868 113.441 22.604C113.957 22.328 114.497 22.19 115.061 22.19ZM114.791 30.2C115.559 30.2 116.189 29.912 116.681 29.336C117.173 28.76 117.419 28.04 117.419 27.176C117.419 26.312 117.173 25.598 116.681 25.034C116.201 24.458 115.571 24.17 114.791 24.17C114.011 24.17 113.375 24.458 112.883 25.034C112.391 25.598 112.145 26.312 112.145 27.176C112.145 28.04 112.391 28.76 112.883 29.336C113.375 29.912 114.011 30.2 114.791 30.2ZM128.813 22.19C129.125 22.19 129.383 22.292 129.587 22.496C129.791 22.7 129.893 22.964 129.893 23.288V30.902C129.893 31.214 129.791 31.478 129.587 31.694C129.383 31.898 129.125 32 128.813 32C128.501 32 128.243 31.898 128.039 31.694C127.847 31.49 127.745 31.232 127.733 30.92C127.433 31.268 127.025 31.568 126.509 31.82C126.005 32.06 125.471 32.18 124.907 32.18C124.079 32.18 123.329 31.97 122.657 31.55C121.985 31.118 121.451 30.524 121.055 29.768C120.671 29.012 120.479 28.154 120.479 27.194C120.479 26.234 120.671 25.376 121.055 24.62C121.439 23.852 121.961 23.258 122.621 22.838C123.293 22.406 124.031 22.19 124.835 22.19C125.411 22.19 125.951 22.298 126.455 22.514C126.959 22.718 127.385 22.982 127.733 23.306V23.288C127.733 22.976 127.835 22.718 128.039 22.514C128.243 22.298 128.501 22.19 128.813 22.19ZM125.177 30.2C125.957 30.2 126.593 29.918 127.085 29.354C127.577 28.778 127.823 28.058 127.823 27.194C127.823 26.33 127.577 25.61 127.085 25.034C126.593 24.458 125.957 24.17 125.177 24.17C124.409 24.17 123.779 24.458 123.287 25.034C122.795 25.61 122.549 26.33 122.549 27.194C122.549 28.058 122.789 28.778 123.269 29.354C123.761 29.918 124.397 30.2 125.177 30.2ZM136.158 22.19C137.178 22.19 138 22.352 138.624 22.676C139.248 22.988 139.56 23.408 139.56 23.936C139.56 24.2 139.482 24.434 139.326 24.638C139.17 24.83 138.966 24.926 138.714 24.926C138.522 24.926 138.366 24.902 138.246 24.854C138.126 24.794 138.006 24.722 137.886 24.638C137.778 24.542 137.67 24.464 137.562 24.404C137.442 24.344 137.262 24.29 137.022 24.242C136.794 24.194 136.608 24.17 136.464 24.17C135.564 24.17 134.856 24.452 134.34 25.016C133.836 25.568 133.584 26.294 133.584 27.194C133.584 28.058 133.842 28.778 134.358 29.354C134.874 29.918 135.534 30.2 136.338 30.2C136.926 30.2 137.364 30.128 137.652 29.984C137.724 29.948 137.82 29.888 137.94 29.804C138.072 29.708 138.192 29.636 138.3 29.588C138.408 29.54 138.54 29.516 138.696 29.516C138.996 29.516 139.23 29.612 139.398 29.804C139.578 29.996 139.668 30.242 139.668 30.542C139.668 30.83 139.5 31.1 139.164 31.352C138.828 31.604 138.384 31.808 137.832 31.964C137.28 32.108 136.692 32.18 136.068 32.18C135.144 32.18 134.328 31.964 133.62 31.532C132.924 31.1 132.384 30.506 132 29.75C131.616 28.982 131.424 28.13 131.424 27.194C131.424 26.222 131.622 25.358 132.018 24.602C132.426 23.846 132.99 23.258 133.71 22.838C134.43 22.406 135.246 22.19 136.158 22.19ZM148.968 30.11C149.196 30.35 149.31 30.62 149.31 30.92C149.31 31.22 149.19 31.472 148.95 31.676C148.722 31.88 148.476 31.982 148.212 31.982C147.9 31.982 147.636 31.862 147.42 31.622L144.18 28.202L143.298 29.012V30.902C143.298 31.214 143.196 31.478 142.992 31.694C142.788 31.898 142.53 32 142.218 32C141.906 32 141.648 31.898 141.444 31.694C141.24 31.478 141.138 31.214 141.138 30.902V19.778C141.138 19.466 141.24 19.208 141.444 19.004C141.648 18.788 141.906 18.68 142.218 18.68C142.53 18.68 142.788 18.788 142.992 19.004C143.196 19.208 143.298 19.466 143.298 19.778V26.438L147.15 22.712C147.378 22.484 147.642 22.37 147.942 22.37C148.206 22.37 148.44 22.484 148.644 22.712C148.86 22.928 148.968 23.15 148.968 23.378C148.968 23.666 148.824 23.936 148.536 24.188L145.818 26.69L148.968 30.11ZM157.994 22.37C158.306 22.37 158.564 22.478 158.768 22.694C158.972 22.898 159.074 23.156 159.074 23.468V28.04C159.074 29.336 158.714 30.35 157.994 31.082C157.286 31.814 156.272 32.18 154.952 32.18C153.632 32.18 152.618 31.814 151.91 31.082C151.202 30.35 150.848 29.336 150.848 28.04V23.468C150.848 23.156 150.95 22.898 151.154 22.694C151.358 22.478 151.616 22.37 151.928 22.37C152.24 22.37 152.498 22.478 152.702 22.694C152.906 22.898 153.008 23.156 153.008 23.468V28.04C153.008 28.772 153.17 29.318 153.494 29.678C153.818 30.026 154.304 30.2 154.952 30.2C155.612 30.2 156.104 30.026 156.428 29.678C156.752 29.318 156.914 28.772 156.914 28.04V23.468C156.914 23.156 157.016 22.898 157.22 22.694C157.424 22.478 157.682 22.37 157.994 22.37ZM168.289 22.37C168.601 22.37 168.859 22.478 169.063 22.694C169.267 22.898 169.369 23.156 169.369 23.468V31.118C169.369 32.678 168.949 33.812 168.109 34.52C167.269 35.24 166.147 35.6 164.743 35.6C164.335 35.6 163.915 35.564 163.483 35.492C163.063 35.432 162.721 35.348 162.457 35.24C161.869 34.988 161.575 34.64 161.575 34.196C161.575 34.112 161.593 34.016 161.629 33.908C161.701 33.644 161.821 33.44 161.989 33.296C162.169 33.164 162.361 33.098 162.565 33.098C162.685 33.098 162.799 33.116 162.907 33.152C162.991 33.188 163.135 33.248 163.339 33.332C163.555 33.416 163.777 33.482 164.005 33.53C164.245 33.59 164.491 33.62 164.743 33.62C165.595 33.62 166.219 33.434 166.615 33.062C167.023 32.702 167.227 32.078 167.227 31.19V31.01C166.603 31.79 165.631 32.18 164.311 32.18C163.687 32.18 163.135 32.036 162.655 31.748C162.175 31.448 161.803 31.04 161.539 30.524C161.275 29.996 161.143 29.396 161.143 28.724V23.468C161.143 23.156 161.245 22.898 161.449 22.694C161.653 22.478 161.911 22.37 162.223 22.37C162.535 22.37 162.793 22.478 162.997 22.694C163.201 22.898 163.303 23.156 163.303 23.468V28.076C163.303 28.832 163.465 29.378 163.789 29.714C164.125 30.038 164.611 30.2 165.247 30.2C165.871 30.2 166.351 30.02 166.687 29.66C167.035 29.288 167.209 28.76 167.209 28.076V23.468C167.209 23.156 167.311 22.898 167.515 22.694C167.719 22.478 167.977 22.37 168.289 22.37Z" fill="white"/>
<defs>
<linearGradient id="paint0_linear" x1="49.3058" y1="30.7432" x2="15.949" y2="29.8104" gradientUnits="userSpaceOnUse">
<stop stop-color="#FF4D86"/>
<stop offset="1" stop-color="#F15F79"/>
</linearGradient>
<linearGradient id="paint1_linear" x1="12.7059" y1="22.4939" x2="37.1928" y2="19.3612" gradientUnits="userSpaceOnUse">
<stop stop-color="#F63B77"/>
<stop offset="1" stop-color="#F15F79"/>
</linearGradient>
</defs>
</svg>
